<svg width="300" height="50" viewBox="0 0 300 50" fill="none" xmlns="http://www.w3.org/2000/svg">
<rect width="300" height="50" fill="white"/>
<path d="M71.934 30L70.814 27.704H65.004L63.884 30H62.288L67.076 20.2H68.84L73.6 30H71.934ZM67.146 23.308L65.718 26.248H70.1L68.644 23.252C68.5133 22.9813 68.3873 22.7247 68.266 22.482C68.1447 22.23 68.0233 21.9593 67.902 21.67C67.7807 21.9687 67.6547 22.2487 67.524 22.51C67.4027 22.7713 67.2767 23.0373 67.146 23.308ZM86.5246 20.2H88.0366V30H86.5106L78.6846 22.3C78.7406 22.9067 78.7966 23.5133 78.8526 24.12C78.918 24.7173 78.9506 25.3193 78.9506 25.926V30H77.4386V20.2H78.9366L86.7626 28.096C86.6973 27.6387 86.646 27.1393 86.6086 26.598C86.5806 26.0567 86.5573 25.5153 86.5386 24.974C86.5293 24.4233 86.5246 23.9053 86.5246 23.42V20.2ZM95.7099 30V21.656H91.9859V20.2H101.03V21.656H97.2219V30H95.7099ZM115.638 25.1C115.638 25.8093 115.493 26.472 115.204 27.088C114.915 27.6947 114.504 28.2267 113.972 28.684C113.44 29.1413 112.815 29.5007 112.096 29.762C111.377 30.014 110.584 30.14 109.716 30.14C108.848 30.14 108.05 30.014 107.322 29.762C106.603 29.5007 105.978 29.1413 105.446 28.684C104.923 28.2267 104.517 27.6947 104.228 27.088C103.939 26.472 103.794 25.8093 103.794 25.1C103.794 24.3907 103.939 23.7327 104.228 23.126C104.517 22.51 104.923 21.9733 105.446 21.516C105.978 21.0587 106.603 20.704 107.322 20.452C108.05 20.1907 108.848 20.06 109.716 20.06C110.584 20.06 111.377 20.1907 112.096 20.452C112.815 20.704 113.44 21.0587 113.972 21.516C114.504 21.9733 114.915 22.51 115.204 23.126C115.493 23.7327 115.638 24.3907 115.638 25.1ZM114.098 25.1C114.098 24.4187 113.911 23.812 113.538 23.28C113.165 22.7387 112.647 22.314 111.984 22.006C111.331 21.6887 110.575 21.53 109.716 21.53C108.848 21.53 108.083 21.6887 107.42 22.006C106.767 22.314 106.253 22.7387 105.88 23.28C105.516 23.812 105.334 24.4187 105.334 25.1C105.334 25.7813 105.516 26.3927 105.88 26.934C106.253 27.466 106.767 27.8907 107.42 28.208C108.083 28.516 108.848 28.67 109.716 28.67C110.575 28.67 111.331 28.516 111.984 28.208C112.647 27.8907 113.165 27.4613 113.538 26.92C113.911 26.3787 114.098 25.772 114.098 25.1ZM129.058 20.2H130.57V30H129.044L121.218 22.3C121.274 22.9067 121.33 23.5133 121.386 24.12C121.451 24.7173 121.484 25.3193 121.484 25.926V30H119.972V20.2H121.47L129.296 28.096C129.23 27.6387 129.179 27.1393 129.142 26.598C129.114 26.0567 129.09 25.5153 129.072 24.974C129.062 24.4233 129.058 23.9053 129.058 23.42V20.2ZM142.462 20.2H150.596V21.656H143.974V24.246H149.826V25.702H143.974V28.544H150.596V30H142.462V20.2ZM156.894 30H155.382V20.2H156.894V25.506L159.582 23.406L163.684 20.2H165.924L160.884 24.12L165.728 30H163.712L159.694 25.044L156.894 27.228V30ZM170.439 26.976C170.99 27.5453 171.573 27.9887 172.189 28.306C172.815 28.6233 173.552 28.782 174.401 28.782C174.887 28.782 175.353 28.726 175.801 28.614C176.249 28.4927 176.618 28.3153 176.907 28.082C177.197 27.8393 177.341 27.536 177.341 27.172C177.341 26.8547 177.211 26.6167 176.949 26.458C176.697 26.29 176.329 26.164 175.843 26.08C175.367 25.9867 174.784 25.898 174.093 25.814C173.253 25.702 172.525 25.534 171.909 25.31C171.293 25.086 170.817 24.7827 170.481 24.4C170.145 24.0173 169.977 23.5367 169.977 22.958C169.977 22.342 170.169 21.8193 170.551 21.39C170.943 20.9607 171.466 20.634 172.119 20.41C172.782 20.1767 173.519 20.06 174.331 20.06C175.33 20.06 176.189 20.2093 176.907 20.508C177.635 20.8067 178.209 21.2313 178.629 21.782L177.621 22.888C177.257 22.4493 176.795 22.0947 176.235 21.824C175.685 21.5533 175.036 21.418 174.289 21.418C173.785 21.418 173.333 21.474 172.931 21.586C172.53 21.6887 172.213 21.8427 171.979 22.048C171.746 22.2533 171.629 22.5007 171.629 22.79C171.629 23.1353 171.751 23.4107 171.993 23.616C172.245 23.812 172.595 23.966 173.043 24.078C173.501 24.19 174.028 24.2833 174.625 24.358C175.185 24.4233 175.727 24.5073 176.249 24.61C176.772 24.7033 177.239 24.8433 177.649 25.03C178.069 25.2073 178.396 25.4547 178.629 25.772C178.872 26.08 178.993 26.4813 178.993 26.976C178.993 27.6107 178.802 28.166 178.419 28.642C178.046 29.118 177.514 29.4867 176.823 29.748C176.133 30.0093 175.321 30.14 174.387 30.14C173.37 30.14 172.455 29.9907 171.643 29.692C170.831 29.3933 170.113 28.908 169.487 28.236L170.439 26.976ZM185.903 30V21.656H182.179V20.2H191.223V21.656H187.415V30H185.903ZM204.071 23.21C204.071 23.6767 203.968 24.1107 203.763 24.512C203.567 24.904 203.296 25.2493 202.951 25.548C202.606 25.8373 202.214 26.0567 201.775 26.206L204.645 30.014L202.755 30L200.039 26.388H196.679V30H195.167V20.2H200.893C201.472 20.2 201.999 20.3353 202.475 20.606C202.96 20.8673 203.348 21.2267 203.637 21.684C203.926 22.132 204.071 22.6407 204.071 23.21ZM200.473 21.656H196.679V24.932H200.473C200.837 24.932 201.168 24.8527 201.467 24.694C201.766 24.5353 202.004 24.3253 202.181 24.064C202.368 23.8027 202.461 23.518 202.461 23.21C202.461 22.9207 202.368 22.6593 202.181 22.426C202.004 22.1927 201.766 22.006 201.467 21.866C201.168 21.726 200.837 21.656 200.473 21.656ZM220.406 25.1C220.406 25.8093 220.261 26.472 219.972 27.088C219.682 27.6947 219.272 28.2267 218.74 28.684C218.208 29.1413 217.582 29.5007 216.864 29.762C216.145 30.014 215.352 30.14 214.484 30.14C213.616 30.14 212.818 30.014 212.09 29.762C211.371 29.5007 210.746 29.1413 210.214 28.684C209.691 28.2267 209.285 27.6947 208.996 27.088C208.706 26.472 208.562 25.8093 208.562 25.1C208.562 24.3907 208.706 23.7327 208.996 23.126C209.285 22.51 209.691 21.9733 210.214 21.516C210.746 21.0587 211.371 20.704 212.09 20.452C212.818 20.1907 213.616 20.06 214.484 20.06C215.352 20.06 216.145 20.1907 216.864 20.452C217.582 20.704 218.208 21.0587 218.74 21.516C219.272 21.9733 219.682 22.51 219.972 23.126C220.261 23.7327 220.406 24.3907 220.406 25.1ZM218.866 25.1C218.866 24.4187 218.679 23.812 218.306 23.28C217.932 22.7387 217.414 22.314 216.752 22.006C216.098 21.6887 215.342 21.53 214.484 21.53C213.616 21.53 212.85 21.6887 212.188 22.006C211.534 22.314 211.021 22.7387 210.648 23.28C210.284 23.812 210.102 24.4187 210.102 25.1C210.102 25.7813 210.284 26.3927 210.648 26.934C211.021 27.466 211.534 27.8907 212.188 28.208C212.85 28.516 213.616 28.67 214.484 28.67C215.342 28.67 216.098 28.516 216.752 28.208C217.414 27.8907 217.932 27.4613 218.306 26.92C218.679 26.3787 218.866 25.772 218.866 25.1ZM213.042 19.29C212.715 19.29 212.472 19.206 212.314 19.038C212.155 18.87 212.076 18.6507 212.076 18.38C212.076 18.1467 212.155 17.9367 212.314 17.75C212.472 17.5633 212.715 17.47 213.042 17.47C213.368 17.47 213.611 17.554 213.77 17.722C213.928 17.89 214.008 18.1093 214.008 18.38C214.008 18.6133 213.928 18.8233 213.77 19.01C213.611 19.1967 213.368 19.29 213.042 19.29ZM215.926 19.29C215.599 19.29 215.356 19.206 215.198 19.038C215.039 18.87 214.96 18.6507 214.96 18.38C214.96 18.1467 215.039 17.9367 215.198 17.75C215.356 17.5633 215.599 17.47 215.926 17.47C216.252 17.47 216.495 17.554 216.654 17.722C216.812 17.89 216.892 18.1093 216.892 18.38C216.892 18.6133 216.812 18.8233 216.654 19.01C216.495 19.1967 216.252 19.29 215.926 19.29ZM226.223 20.2L230.423 25.394L234.623 20.2H236.107V30H234.595V25.842C234.595 25.2353 234.605 24.6613 234.623 24.12C234.651 23.5693 234.693 23.0233 234.749 22.482L230.885 27.186H229.961L226.097 22.482C226.153 23.0233 226.191 23.5693 226.209 24.12C226.237 24.6613 226.251 25.2353 226.251 25.842V30H224.739V20.2H226.223Z" fill="#131313"/>
</svg>
